REM DIRINDEX 1\2,1\4,1\5,1\6,1\7,1\3\8,1\3\9,1\3\10
REM DIRNAME folder01,folder02,folder03,folder04,folder05,folder06,folder07,folder08,folder09,folder10
TITLE ""
FILE "DB4500_5th_4B_33.mp3" MP3
  TRACK 01 AUDIO
    TITLE "8:cjc113_2990"
    INDEX 01 00:00:00
  TRACK 02 AUDIO
    TITLE "0:"
    INDEX 01 00:01:05
  TRACK 03 AUDIO
    TITLE "9:cjc113_2991"
    INDEX 01 00:01:26
  TRACK 04 AUDIO
    TITLE "0:"
    INDEX 01 00:03:08
  TRACK 05 AUDIO
    TITLE "10:cjc113_2992"
    INDEX 01 00:03:33
  TRACK 06 AUDIO
    TITLE "0:"
    INDEX 01 00:06:47
  TRACK 07 AUDIO
    TITLE "8:cjc113_2993"
    INDEX 01 00:07:21
  TRACK 08 AUDIO
    TITLE "0:"
    INDEX 01 00:08:36
  TRACK 09 AUDIO
    TITLE "9:cjc113_2994"
    INDEX 01 00:08:58
  TRACK 10 AUDIO
    TITLE "0:"
    INDEX 01 00:09:63
  TRACK 11 AUDIO
    TITLE "10:cjc113_2995"
    INDEX 01 00:10:12
  TRACK 12 AUDIO
    TITLE "0:"
    INDEX 01 00:12:71
  TRACK 13 AUDIO
    TITLE "8:cjc113_2996"
    INDEX 01 00:13:43
  TRACK 14 AUDIO
    TITLE "0:"
    INDEX 01 00:14:66
  TRACK 15 AUDIO
    TITLE "9:cjc113_2997"
    INDEX 01 00:15:13
  TRACK 16 AUDIO
    TITLE "0:"
    INDEX 01 00:16:48
  TRACK 17 AUDIO
    TITLE "10:cjc113_2998"
    INDEX 01 00:16:71
  TRACK 18 AUDIO
    TITLE "0:"
    INDEX 01 00:21:39
  TRACK 19 AUDIO
    TITLE "8:cjc113_2999"
    INDEX 01 00:22:13
  TRACK 20 AUDIO
    TITLE "0:"
    INDEX 01 00:23:26
  TRACK 21 AUDIO
    TITLE "9:cjc113_3000"
    INDEX 01 00:23:46
  TRACK 22 AUDIO
    TITLE "0:"
    INDEX 01 00:24:45
  TRACK 23 AUDIO
    TITLE "10:cjc113_3001"
    INDEX 01 00:24:69
  TRACK 24 AUDIO
    TITLE "0:"
    INDEX 01 00:28:53
  TRACK 25 AUDIO
    TITLE "8:cjc113_3002"
    INDEX 01 00:29:25
  TRACK 26 AUDIO
    TITLE "0:"
    INDEX 01 00:30:34
  TRACK 27 AUDIO
    TITLE "9:cjc113_3003"
    INDEX 01 00:30:57
  TRACK 28 AUDIO
    TITLE "0:"
    INDEX 01 00:32:07
  TRACK 29 AUDIO
    TITLE "10:cjc113_3004"
    INDEX 01 00:32:29
  TRACK 30 AUDIO
    TITLE "0:"
    INDEX 01 00:34:47
  TRACK 31 AUDIO
    TITLE "8:cjc113_3005"
    INDEX 01 00:35:17
  TRACK 32 AUDIO
    TITLE "0:"
    INDEX 01 00:36:33
  TRACK 33 AUDIO
    TITLE "9:cjc113_3006"
    INDEX 01 00:36:58
  TRACK 34 AUDIO
    TITLE "0:"
    INDEX 01 00:38:10
  TRACK 35 AUDIO
    TITLE "10:cjc113_3007"
    INDEX 01 00:38:33
  TRACK 36 AUDIO
    TITLE "0:"
    INDEX 01 00:42:23
  TRACK 37 AUDIO
    TITLE "8:cjc113_3008"
    INDEX 01 00:42:70
  TRACK 38 AUDIO
    TITLE "0:"
    INDEX 01 00:44:09
  TRACK 39 AUDIO
    TITLE "9:cjc113_3009"
    INDEX 01 00:44:34
  TRACK 40 AUDIO
    TITLE "0:"
    INDEX 01 00:45:57
  TRACK 41 AUDIO
    TITLE "10:cjc113_3010"
    INDEX 01 00:46:06
  TRACK 42 AUDIO
    TITLE "0:"
    INDEX 01 00:50:62
  TRACK 43 AUDIO
    TITLE "8:cjc113_3011"
    INDEX 01 00:51:36
  TRACK 44 AUDIO
    TITLE "0:"
    INDEX 01 00:52:55
  TRACK 45 AUDIO
    TITLE "9:cjc113_3012"
    INDEX 01 00:53:00
  TRACK 46 AUDIO
    TITLE "0:"
    INDEX 01 00:54:34
  TRACK 47 AUDIO
    TITLE "10:cjc113_3013"
    INDEX 01 00:54:58
  TRACK 48 AUDIO
    TITLE "0:"
    INDEX 01 00:57:60
  TRACK 49 AUDIO
    TITLE "8:cjc113_3014"
    INDEX 01 00:58:34
  TRACK 50 AUDIO
    TITLE "0:"
    INDEX 01 00:59:53
  TRACK 51 AUDIO
    TITLE "9:cjc113_3015"
    INDEX 01 00:59:69
  TRACK 52 AUDIO
    TITLE "0:"
    INDEX 01 01:01:27
  TRACK 53 AUDIO
    TITLE "10:cjc113_3016"
    INDEX 01 01:01:48
  TRACK 54 AUDIO
    TITLE "0:"
    INDEX 01 01:05:05
  TRACK 55 AUDIO
    TITLE "8:cjc113_3017"
    INDEX 01 01:05:48
  TRACK 56 AUDIO
    TITLE "0:"
    INDEX 01 01:06:61
  TRACK 57 AUDIO
    TITLE "9:cjc113_3018"
    INDEX 01 01:07:12
  TRACK 58 AUDIO
    TITLE "0:"
    INDEX 01 01:08:15
  TRACK 59 AUDIO
    TITLE "10:cjc113_3019"
    INDEX 01 01:08:36
  TRACK 60 AUDIO
    TITLE "0:"
    INDEX 01 01:12:13
  TRACK 61 AUDIO
    TITLE "8:cjc113_3020"
    INDEX 01 01:12:62
  TRACK 62 AUDIO
    TITLE "0:"
    INDEX 01 01:13:67
  TRACK 63 AUDIO
    TITLE "9:cjc113_3021"
    INDEX 01 01:14:14
  TRACK 64 AUDIO
    TITLE "0:"
    INDEX 01 01:15:19
  TRACK 65 AUDIO
    TITLE "10:cjc113_3022"
    INDEX 01 01:15:42
  TRACK 66 AUDIO
    TITLE "0:"
    INDEX 01 01:18:37
  TRACK 67 AUDIO
    TITLE "8:cjc113_3023"
    INDEX 01 01:19:11
  TRACK 68 AUDIO
    TITLE "0:"
    INDEX 01 01:20:20
  TRACK 69 AUDIO
    TITLE "9:cjc113_3024"
    INDEX 01 01:20:40
  TRACK 70 AUDIO
    TITLE "0:"
    INDEX 01 01:22:15
  TRACK 71 AUDIO
    TITLE "10:cjc113_3025"
    INDEX 01 01:22:37
  TRACK 72 AUDIO
    TITLE "0:"
    INDEX 01 01:25:74
  TRACK 73 AUDIO
    TITLE "8:cjc113_3026"
    INDEX 01 01:26:46
  TRACK 74 AUDIO
    TITLE "0:"
    INDEX 01 01:27:65
  TRACK 75 AUDIO
    TITLE "9:cjc113_3027"
    INDEX 01 01:28:12
  TRACK 76 AUDIO
    TITLE "0:"
    INDEX 01 01:29:54
  TRACK 77 AUDIO
    TITLE "10:cjc113_3028"
    INDEX 01 01:30:03
  TRACK 78 AUDIO
    TITLE "0:"
    INDEX 01 01:33:19
  TRACK 79 AUDIO
    TITLE "8:cjc113_3029"
    INDEX 01 01:33:68
  TRACK 80 AUDIO
    TITLE "0:"
    INDEX 01 01:35:29
  TRACK 81 AUDIO
    TITLE "9:cjc113_3030"
    INDEX 01 01:35:53
  TRACK 82 AUDIO
    TITLE "0:"
    INDEX 01 01:37:30
  TRACK 83 AUDIO
    TITLE "10:cjc113_3031"
    INDEX 01 01:37:50
  TRACK 84 AUDIO
    TITLE "0:"
    INDEX 01 01:41:01
